<svg width="45" height="45" viewBox="0 0 45 45" fill="none" xmlns="http://www.w3.org/2000/svg">
<circle cx="22.5" cy="22.5" r="22.5" fill="#111012"/>
<path fill-rule="evenodd" clip-rule="evenodd" d="M23 11.7196C21.7715 11.7196 20.7757 12.7155 20.7757 13.9439H15.0561C15.0561 9.55662 18.6127 6 23 6C27.3874 6 30.9439 9.55662 30.9439 13.9439C30.9439 18.3312 27.3874 21.8878 23 21.8878V16.1682C24.2284 16.1682 25.2243 15.1724 25.2243 13.9439C25.2243 12.7155 24.2284 11.7196 23 11.7196ZM34.2803 23C34.2803 21.7715 33.2845 20.7757 32.0561 20.7757V15.0561C36.4434 15.0561 40 18.6127 40 23C40 27.3874 36.4434 30.9439 32.0561 30.9439C27.6687 30.9439 24.1121 27.3874 24.1121 23H29.8318C29.8318 24.2284 30.8276 25.2243 32.0561 25.2243C33.2845 25.2243 34.2803 24.2284 34.2803 23ZM13.9439 25.2243C12.7155 25.2243 11.7196 24.2284 11.7196 23C11.7196 21.7715 12.7155 20.7757 13.9439 20.7757C15.1724 20.7757 16.1682 21.7715 16.1682 23H21.8878C21.8878 18.6127 18.3312 15.0561 13.9439 15.0561C9.55662 15.0561 6 18.6127 6 23C6 27.3874 9.55662 30.9439 13.9439 30.9439V25.2243ZM23 34.2803C24.2284 34.2803 25.2243 33.2845 25.2243 32.0561H30.9439C30.9439 36.4434 27.3874 40 23 40C18.6127 40 15.0561 36.4434 15.0561 32.0561C15.0561 27.6687 18.6127 24.1121 23 24.1121V29.8318C21.7715 29.8318 20.7757 30.8276 20.7757 32.0561C20.7757 33.2845 21.7715 34.2803 23 34.2803Z" fill="#C58DE7"/>
</svg>
